<?xml version="1.0" encoding="UTF-8"?>
<svg xmlns="http://www.w3.org/2000/svg" xmlns:xlink="http://www.w3.org/1999/xlink" viewBox="0 0 256 256" width="256px" height="256px">
<g id="surface19651294">
<path style=" stroke:none;fill-rule:nonzero;fill:rgb(0%,0%,0%);fill-opacity:1;" d="M 168 22 C 164.601562 22 162 24.601562 162 28 C 162 31.398438 164.601562 34 168 34 L 213.601562 34 L 120.800781 126.800781 C 118.402344 129.199219 118.402344 133 120.800781 135.199219 C 122 136.398438 123.601562 137 125 137 C 126.398438 137 128 136.398438 129.199219 135.199219 L 222 42.398438 L 222 88 C 222 91.398438 224.601562 94 228 94 C 231.398438 94 234 91.398438 234 88 L 234 28 C 234 24.601562 231.398438 22 228 22 Z M 48 62 C 33.601562 62 22 73.601562 22 88 L 22 208 C 22 222.398438 33.601562 234 48 234 L 168 234 C 182.398438 234 194 222.398438 194 208 L 194 118 C 194 114.601562 191.398438 112 188 112 C 184.601562 112 182 114.601562 182 118 L 182 208 C 182 215.800781 175.800781 222 168 222 L 48 222 C 40.199219 222 34 215.800781 34 208 L 34 88 C 34 80.199219 40.199219 74 48 74 L 138 74 C 141.398438 74 144 71.398438 144 68 C 144 64.601562 141.398438 62 138 62 Z M 48 62 "/>
</g>
</svg>
